<svg xmlns="http://www.w3.org/2000/svg" viewBox="0 0 32 32" width="256" height="256">
    <path d="M16.66.65c-.42-.2-.9-.2-1.32 0L3.84 6.31c-.51.25-.83.77-.83 1.35v16.68c0 .58.32 1.1.83 1.35l11.5 5.66a1.516 1.516 0 0 0 1.32 0l11.5-5.66c.51-.25.83-.77.83-1.35V7.66c0-.58-.32-1.1-.83-1.35L16.66.65zm4.81 16.85H17.5v3.97c0 .83-.67 1.5-1.5 1.5s-1.5-.67-1.5-1.5V17.5h-3.97c-.83 0-1.5-.67-1.5-1.5s.67-1.5 1.5-1.5h3.97v-3.97c0-.83.67-1.5 1.5-1.5s1.5.67 1.5 1.5v3.97h3.97c.83 0 1.5.67 1.5 1.5s-.67 1.5-1.5 1.5z" fill="#000000" class="color000 svgShape"></path>
</svg>